<svg width="128" height="128" viewBox="0 0 128 128" fill="none" xmlns="http://www.w3.org/2000/svg">
<g clip-path="url(#clip0_33_2)">
<g clip-path="url(#clip1_33_2)">
<path d="M64 128C99.3459 128 128 99.3459 128 64C128 28.6538 99.3459 0 64 0C28.6538 0 0 28.6538 0 64C0 99.3459 28.6538 128 64 128Z" fill="#C6C9D3"/>
<path d="M98 81.8866V60.6647C98 42.4378 98 33.3245 93.0207 27.6623C88.0414 22 80.0276 22 64 22C47.9724 22 39.9583 22 34.9792 27.6623C30 33.3245 30 42.4378 30 60.6647V81.8866C30 95.0463 30 101.627 32.7733 104.503C34.0959 105.874 35.7655 106.735 37.5439 106.964C41.273 107.444 45.6277 103.111 54.3372 94.4445C58.1869 90.6135 60.1121 88.6985 62.3391 88.1936C63.4356 87.9454 64.5644 87.9454 65.6609 88.1936C67.8879 88.6985 69.8131 90.6135 73.6628 94.4445C82.3727 103.111 86.7273 107.444 90.4563 106.964C92.2345 106.735 93.9039 105.874 95.2265 104.503C98 101.627 98 95.0463 98 81.8866Z" fill="#1C274D"/>
</g>
<path d="M71.1805 35.2928C82.0759 39.4553 87.6937 52.1006 83.7283 63.5369C80.9089 71.6672 74.005 76.9978 66.334 77.9044M66.334 77.9044L69.4759 72.4228M66.334 77.9044L71.4667 81M56.8195 76.7072C45.924 72.5447 40.3062 59.8994 44.2718 48.4632C47.0911 40.3328 53.9951 35.0023 61.666 34.0956M61.666 34.0956L58.5241 39.5772M61.666 34.0956L56.5334 31" stroke="white" stroke-width="4" stroke-linecap="round" stroke-linejoin="round"/>
</g>
<defs>
<clipPath id="clip0_33_2">
<rect width="128" height="128" fill="white"/>
</clipPath>
<clipPath id="clip1_33_2">
<rect width="128" height="128" fill="white"/>
</clipPath>
</defs>
</svg>
